{
  "accessors": [
    {
      "bufferView": 2,
      "componentType": 5126,
      "count": 3242,
      "max": [
        0.25220000743865967,
        0.6014249920845032,
        0.7473639845848083
      ],
      "min": [
        -0.006023999769240618,
        -0.6014249920845032,
        -0.6324260234832764
      ],
      "type": "VEC3"
    },
    {
      "bufferView": 2,
      "byteOffset": 38904,
      "componentType": 5126,
      "count": 3242,
      "max": [
        1.0,
        1.0,
        1.0
      ],
      "min": [
        -1.0,
        -1.0,
        -1.0
      ],
      "type": "VEC3"
    },
    {
      "bufferView": 1,
      "componentType": 5126,
      "count": 3242,
      "max": [
        0.9995120167732239,
        0.9999690055847168
      ],
      "min": [
        3.099999958067201e-05,
        0.0
      ],
      "type": "VEC2"
    },
    {
      "bufferView": 0,
      "componentType": 5125,
      "count": 11724,
      "type": "SCALAR"
    }
  ],
  "asset": {
    "extras": {
      "author": "Lorem_bloxYT (https://sketchfab.com/cassiadmoraes22)",
      "license": "CC-BY-4.0 (http://creativecommons.org/licenses/by/4.0/)",
      "source": "https://sketchfab.com/3d-models/poppy-playtime-electrical-green-hand-pannel-ed5af75e9b1f41b7ac200cf86eb952b3",
      "title": "Poppy Playtime Electrical Green Hand Pannel"
    },
    "generator": "Sketchfab-13.73.0",
    "version": "2.0"
  },
  "bufferViews": [
    {
      "buffer": 0,
      "byteLength": 46896,
      "name": "floatBufferViews",
      "target": 34963
    },
    {
      "buffer": 0,
      "byteLength": 25936,
      "byteOffset": 46896,
      "byteStride": 8,
      "name": "floatBufferViews",
      "target": 34962
    },
    {
      "buffer": 0,
      "byteLength": 77808,
      "byteOffset": 72832,
      "byteStride": 12,
      "name": "floatBufferViews",
      "target": 34962
    }
  ],
  "buffers": [
    {
      "byteLength": 150640,
      "uri": "scene.bin"
    }
  ],
  "images": [
    {
      "uri": "textures/green_electrical_a_MAT_baseColor.png"
    }
  ],
  "materials": [
    {
      "doubleSided": true,
      "name": "green_electrical_a_MAT",
      "pbrMetallicRoughness": {
        "baseColorTexture": {
          "index": 0
        },
        "metallicFactor": 0.0,
        "roughnessFactor": 0.6
      }
    }
  ],
  "meshes": [
    {
      "name": "Object_0",
      "primitives": [
        {
          "attributes": {
            "NORMAL": 1,
            "POSITION": 0,
            "TEXCOORD_0": 2
          },
          "indices": 3,
          "material": 0,
          "mode": 4
        }
      ]
    }
  ],
  "nodes": [
    {
      "children": [
        1
      ],
      "matrix": [
        1.0,
        0.0,
        0.0,
        0.0,
        0.0,
        2.220446049250313e-16,
        -1.0,
        0.0,
        0.0,
        1.0,
        2.220446049250313e-16,
        0.0,
        0.0,
        0.0,
        0.0,
        1.0
      ],
      "name": "Sketchfab_model"
    },
    {
      "children": [
        2
      ],
      "name": "electrical hand pannel.obj.cleaner.materialmerger.gles"
    },
    {
      "mesh": 0,
      "name": "Object_2"
    }
  ],
  "samplers": [
    {
      "magFilter": 9729,
      "minFilter": 9987,
      "wrapS": 10497,
      "wrapT": 10497
    }
  ],
  "scene": 0,
  "scenes": [
    {
      "name": "Sketchfab_Scene",
      "nodes": [
        0
      ]
    }
  ],
  "textures": [
    {
      "sampler": 0,
      "source": 0
    }
  ]
}
