{
  "accessors": [
    {
      "bufferView": 2,
      "componentType": 5126,
      "count": 4738,
      "max": [
        1.2950868606567383,
        1.017130970954895,
        1.3304405212402344
      ],
      "min": [
        -1.376112937927246,
        0.34435391426086426,
        -0.40296176075935364
      ],
      "type": "VEC3"
    },
    {
      "bufferView": 2,
      "byteOffset": 56856,
      "componentType": 5126,
      "count": 4738,
      "max": [
        1.0,
        0.9999898076057434,
        1.0
      ],
      "min": [
        -1.0,
        -1.0,
        -1.0
      ],
      "type": "VEC3"
    },
    {
      "bufferView": 1,
      "componentType": 5126,
      "count": 4738,
      "max": [
        0.9960939884185791,
        0.9951549768447876
      ],
      "min": [
        0.005855559837073088,
        0.00292969006113708
      ],
      "type": "VEC2"
    },
    {
      "bufferView": 0,
      "componentType": 5125,
      "count": 19872,
      "type": "SCALAR"
    },
    {
      "bufferView": 2,
      "byteOffset": 113712,
      "componentType": 5126,
      "count": 5555,
      "max": [
        5.285592079162598,
        13.04055118560791,
        0.7901382446289063
      ],
      "min": [
        -5.416312217712402,
        -0.2177504599094391,
        0.20253752171993256
      ],
      "type": "VEC3"
    },
    {
      "bufferView": 2,
      "byteOffset": 180372,
      "componentType": 5126,
      "count": 5555,
      "max": [
        1.0,
        1.0,
        1.0
      ],
      "min": [
        -1.0,
        -1.0,
        -1.0
      ],
      "type": "VEC3"
    },
    {
      "bufferView": 1,
      "byteOffset": 37904,
      "componentType": 5126,
      "count": 5555,
      "max": [
        0.9956049919128418,
        0.9965630173683167
      ],
      "min": [
        0.0023460399825125933,
        0.0024414099752902985
      ],
      "type": "VEC2"
    },
    {
      "bufferView": 0,
      "byteOffset": 79488,
      "componentType": 5125,
      "count": 9036,
      "type": "SCALAR"
    },
    {
      "bufferView": 2,
      "byteOffset": 247032,
      "componentType": 5126,
      "count": 826,
      "max": [
        0.5707281827926636,
        0.8367910385131836,
        1.198638916015625
      ],
      "min": [
        -0.6894966959953308,
        0.5852999687194824,
        -0.2999337613582611
      ],
      "type": "VEC3"
    },
    {
      "bufferView": 2,
      "byteOffset": 256944,
      "componentType": 5126,
      "count": 826,
      "max": [
        0.9985132217407227,
        0.9885870218276978,
        0.984563410282135
      ],
      "min": [
        -0.994354248046875,
        -0.9949617981910706,
        -0.9807414412498474
      ],
      "type": "VEC3"
    },
    {
      "bufferView": 1,
      "byteOffset": 82344,
      "componentType": 5126,
      "count": 826,
      "max": [
        0.9936519861221313,
        0.9957540035247803
      ],
      "min": [
        0.1375730037689209,
        0.47460898756980896
      ],
      "type": "VEC2"
    },
    {
      "bufferView": 0,
      "byteOffset": 115632,
      "componentType": 5125,
      "count": 4080,
      "type": "SCALAR"
    },
    {
      "bufferView": 2,
      "byteOffset": 266856,
      "componentType": 5126,
      "count": 546,
      "max": [
        0.5707281827926636,
        0.8659050464630127,
        1.2275511026382446
      ],
      "min": [
        -0.6894966959953308,
        0.5561858415603638,
        -0.2999337613582611
      ],
      "type": "VEC3"
    },
    {
      "bufferView": 2,
      "byteOffset": 273408,
      "componentType": 5126,
      "count": 546,
      "max": [
        0.9989508986473083,
        0.9885870218276978,
        0.9399909377098083
      ],
      "min": [
        -0.994354248046875,
        -0.9949617981910706,
        -0.9746775031089783
      ],
      "type": "VEC3"
    },
    {
      "bufferView": 1,
      "byteOffset": 88952,
      "componentType": 5126,
      "count": 546,
      "max": [
        0.9936519861221313,
        0.9957540035247803
      ],
      "min": [
        0.1375730037689209,
        0.47460898756980896
      ],
      "type": "VEC2"
    },
    {
      "bufferView": 0,
      "byteOffset": 131952,
      "componentType": 5125,
      "count": 2400,
      "type": "SCALAR"
    }
  ],
  "asset": {
    "extras": {
      "author": "TOY WAR (https://sketchfab.com/toywar.com)",
      "license": "CC-BY-4.0 (http://creativecommons.org/licenses/by/4.0/)",
      "source": "https://sketchfab.com/3d-models/project-playtime-gate-381af44a6e164f5f983552cf6d971373",
      "title": "Project Playtime Gate"
    },
    "generator": "Sketchfab-15.91.0",
    "version": "2.0"
  },
  "bufferViews": [
    {
      "buffer": 0,
      "byteLength": 141552,
      "name": "floatBufferViews",
      "target": 34963
    },
    {
      "buffer": 0,
      "byteLength": 93320,
      "byteOffset": 141552,
      "byteStride": 8,
      "name": "floatBufferViews",
      "target": 34962
    },
    {
      "buffer": 0,
      "byteLength": 279960,
      "byteOffset": 234872,
      "byteStride": 12,
      "name": "floatBufferViews",
      "target": 34962
    }
  ],
  "buffers": [
    {
      "byteLength": 514832,
      "uri": "scene.bin"
    }
  ],
  "extensionsUsed": [
    "KHR_materials_emissive_strength"
  ],
  "images": [
    {
      "uri": "textures/Smslamdoorhandlemo1Mtl_baseColor.png"
    },
    {
      "uri": "textures/Smslamdoormo1Mtl_baseColor.png"
    },
    {
      "uri": "textures/Material.001_baseColor.jpeg"
    }
  ],
  "materials": [
    {
      "doubleSided": true,
      "name": "Smslamdoorhandlemo1Mtl",
      "pbrMetallicRoughness": {
        "baseColorTexture": {
          "index": 0
        },
        "metallicFactor": 0.0,
        "roughnessFactor": 0.8211145618000169
      }
    },
    {
      "doubleSided": true,
      "name": "Smslamdoormo1Mtl",
      "pbrMetallicRoughness": {
        "baseColorTexture": {
          "index": 1
        },
        "metallicFactor": 0.0
      }
    },
    {
      "doubleSided": true,
      "name": "Material.001",
      "pbrMetallicRoughness": {
        "baseColorTexture": {
          "index": 2
        },
        "metallicFactor": 0.0,
        "roughnessFactor": 0.8211145618000169
      }
    },
    {
      "doubleSided": true,
      "emissiveFactor": [
        0.9114827284342282,
        0.8111140526163865,
        0.0
      ],
      "extensions": {
        "KHR_materials_emissive_strength": {
          "emissiveStrength": 10.0
        }
      },
      "name": "Material.004",
      "pbrMetallicRoughness": {
        "baseColorFactor": [
          1.0,
          0.7341256486485077,
          0.0008539658980380544,
          1.0
        ],
        "metallicFactor": 0.0,
        "roughnessFactor": 0.8040408205773457
      }
    }
  ],
  "meshes": [
    {
      "name": "gate_Smslamdoorhandlemo1Mtl_0",
      "primitives": [
        {
          "attributes": {
            "NORMAL": 1,
            "POSITION": 0,
            "TEXCOORD_0": 2
          },
          "indices": 3,
          "material": 0,
          "mode": 4
        }
      ]
    },
    {
      "name": "gate2_Smslamdoormo1Mtl_0",
      "primitives": [
        {
          "attributes": {
            "NORMAL": 5,
            "POSITION": 4,
            "TEXCOORD_0": 6
          },
          "indices": 7,
          "material": 1,
          "mode": 4
        }
      ]
    },
    {
      "name": "gate.001_Material.001_0",
      "primitives": [
        {
          "attributes": {
            "NORMAL": 9,
            "POSITION": 8,
            "TEXCOORD_0": 10
          },
          "indices": 11,
          "material": 2,
          "mode": 4
        }
      ]
    },
    {
      "name": "gate.001_Material.004_0",
      "primitives": [
        {
          "attributes": {
            "NORMAL": 13,
            "POSITION": 12,
            "TEXCOORD_0": 14
          },
          "indices": 15,
          "material": 3,
          "mode": 4
        }
      ]
    }
  ],
  "nodes": [
    {
      "children": [
        1
      ],
      "matrix": [
        1.0,
        0.0,
        0.0,
        0.0,
        0.0,
        2.220446049250313e-16,
        -1.0,
        0.0,
        0.0,
        1.0,
        2.220446049250313e-16,
        0.0,
        0.0,
        0.0,
        0.0,
        1.0
      ],
      "name": "Sketchfab_model"
    },
    {
      "children": [
        2
      ],
      "matrix": [
        0.009999999776482582,
        0.0,
        0.0,
        0.0,
        0.0,
        0.0,
        0.009999999776482582,
        0.0,
        0.0,
        -0.009999999776482582,
        0.0,
        0.0,
        0.0,
        0.0,
        0.0,
        1.0
      ],
      "name": "gate.fbx"
    },
    {
      "children": [
        3,
        5,
        7
      ],
      "name": "RootNode"
    },
    {
      "children": [
        4
      ],
      "matrix": [
        100.0,
        0.0,
        0.0,
        0.0,
        0.0,
        99.99999999999972,
        -7.5497901264043296e-06,
        0.0,
        0.0,
        7.5497901264043296e-06,
        99.99999999999972,
        0.0,
        0.0,
        0.0,
        0.0,
        1.0
      ],
      "name": "gate"
    },
    {
      "mesh": 0,
      "name": "gate_Smslamdoorhandlemo1Mtl_0"
    },
    {
      "children": [
        6
      ],
      "matrix": [
        100.0,
        0.0,
        0.0,
        0.0,
        0.0,
        99.99999999999972,
        -7.5497901264043296e-06,
        0.0,
        0.0,
        7.5497901264043296e-06,
        99.99999999999972,
        0.0,
        0.0,
        0.0,
        0.0,
        1.0
      ],
      "name": "gate2"
    },
    {
      "mesh": 1,
      "name": "gate2_Smslamdoormo1Mtl_0"
    },
    {
      "children": [
        8,
        9
      ],
      "matrix": [
        100.0,
        0.0,
        0.0,
        0.0,
        0.0,
        99.99999999999972,
        -7.5497901264043296e-06,
        0.0,
        0.0,
        7.5497901264043296e-06,
        99.99999999999972,
        0.0,
        0.0,
        0.0,
        0.0,
        1.0
      ],
      "name": "gate.001"
    },
    {
      "mesh": 2,
      "name": "gate.001_Material.001_0"
    },
    {
      "mesh": 3,
      "name": "gate.001_Material.004_0"
    }
  ],
  "samplers": [
    {
      "magFilter": 9729,
      "minFilter": 9987,
      "wrapS": 10497,
      "wrapT": 10497
    }
  ],
  "scene": 0,
  "scenes": [
    {
      "name": "Sketchfab_Scene",
      "nodes": [
        0
      ]
    }
  ],
  "textures": [
    {
      "sampler": 0,
      "source": 0
    },
    {
      "sampler": 0,
      "source": 1
    },
    {
      "sampler": 0,
      "source": 2
    }
  ]
}
